<svg xmlns="http://www.w3.org/2000/svg" width="50" height="50" viewBox="0 0 50 50">
  <g id="Сгруппировать_722" data-name="Сгруппировать 722" transform="translate(-930 -1872)">
    <g id="Контур_327" data-name="Контур 327" transform="translate(930 1872)" fill="none">
      <path d="M25,0A25,25,0,1,1,0,25,25,25,0,0,1,25,0Z" stroke="none"/>
      <path d="M 25 3 C 22.02869987487793 3 19.14785957336426 3.581260681152344 16.43753051757812 4.727638244628906 C 13.81813812255859 5.835540771484375 11.46506118774414 7.4222412109375 9.443649291992188 9.443649291992188 C 7.4222412109375 11.46506118774414 5.835540771484375 13.81813812255859 4.727638244628906 16.43753051757812 C 3.581260681152344 19.14785957336426 3 22.02869987487793 3 25 C 3 27.97130012512207 3.581260681152344 30.85214042663574 4.727638244628906 33.56246948242188 C 5.835540771484375 36.18186187744141 7.4222412109375 38.53493881225586 9.443649291992188 40.55635070800781 C 11.46506118774414 42.5777587890625 13.81813812255859 44.16445922851562 16.43753051757812 45.27236175537109 C 19.14785957336426 46.41873931884766 22.02869987487793 47 25 47 C 27.97130012512207 47 30.85214042663574 46.41873931884766 33.56246948242188 45.27236175537109 C 36.18186187744141 44.16445922851562 38.53493881225586 42.5777587890625 40.55635070800781 40.55635070800781 C 42.5777587890625 38.53493881225586 44.16445922851562 36.18186187744141 45.27236175537109 33.56246948242188 C 46.41873931884766 30.85214042663574 47 27.97130012512207 47 25 C 47 22.02869987487793 46.41873931884766 19.14785957336426 45.27236175537109 16.43753051757812 C 44.16445922851562 13.81813812255859 42.5777587890625 11.46506118774414 40.55635070800781 9.443649291992188 C 38.53493881225586 7.4222412109375 36.18186187744141 5.835540771484375 33.56246948242188 4.727638244628906 C 30.85214042663574 3.581260681152344 27.97130012512207 3 25 3 M 25 0 C 38.80712127685547 0 50 11.19287872314453 50 25 C 50 38.80712127685547 38.80712127685547 50 25 50 C 11.19287872314453 50 0 38.80712127685547 0 25 C 0 11.19287872314453 11.19287872314453 0 25 0 Z" stroke="none" fill="#199094"/>
    </g>
    <g id="Сгруппировать_776" data-name="Сгруппировать 776" transform="translate(-1.508)">
      <g id="Сгруппировать_721" data-name="Сгруппировать 721" transform="translate(953.321 1891.195)">
        <line id="Линия_131" data-name="Линия 131" x1="11.225" y2="12.949" fill="none" stroke="#028488" stroke-width="3"/>
      </g>
      <g id="Сгруппировать_775" data-name="Сгруппировать 775" transform="translate(948.508 1904.145) rotate(-90)">
        <line id="Линия_131-2" data-name="Линия 131" x1="5.618" y2="6.493" fill="none" stroke="#028488" stroke-width="3"/>
      </g>
    </g>
  </g>
</svg>
